<svg width="20" height="20" viewBox="0 0 20 20" fill="none" xmlns="http://www.w3.org/2000/svg">
<path d="M10 20C15.5228 20 20 15.5228 20 10C20 4.47715 15.5228 0 10 0C4.47715 0 0 4.47715 0 10C0 15.5228 4.47715 20 10 20Z" fill="#0D1E30"/>
<path d="M9.82785 3.78724C10.1272 3.63286 10.4928 3.98974 10.3341 4.28411C10.241 4.52411 9.89035 4.58786 9.7116 4.40474C9.52222 4.22974 9.5841 3.88224 9.82785 3.78661V3.78724ZM6.60597 4.12849C6.78785 4.05474 7.01847 4.21849 6.99972 4.41411C7.01847 4.62536 6.75597 4.78161 6.57035 4.68099C6.32472 4.58724 6.35285 4.19474 6.60597 4.12849ZM13.2047 4.68661C12.9203 4.65286 12.8753 4.21286 13.1485 4.12411C13.361 4.02286 13.556 4.21349 13.5872 4.41161C13.5422 4.58036 13.3985 4.73536 13.2047 4.68661ZM7.3391 5.47724C7.64347 5.28786 8.07722 5.56974 8.03035 5.91786C8.01472 6.26849 7.54097 6.47224 7.27347 6.23474C7.01472 6.04849 7.0541 5.62099 7.3391 5.47724ZM11.9828 5.67849C12.1185 5.33474 12.6685 5.32349 12.8228 5.65849C12.976 5.91911 12.7878 6.24224 12.516 6.33099C12.1553 6.39724 11.8135 6.01349 11.9828 5.67849ZM9.43972 6.31161C9.4366 6.01536 9.71035 5.79536 9.99597 5.77474C10.186 5.81224 10.3922 5.89161 10.4735 6.07974C10.6253 6.33974 10.4903 6.69661 10.2172 6.81599C10.0922 6.88474 9.94347 6.85911 9.80722 6.85099C9.5991 6.75099 9.42347 6.55286 9.43972 6.31161ZM4.64847 6.74286C4.9266 6.57411 5.3016 6.88036 5.19597 7.17786C5.13847 7.43474 4.78722 7.53911 4.5866 7.37536C4.37222 7.22161 4.40597 6.85224 4.6491 6.74224L4.64847 6.74286ZM14.9372 6.74161C15.1728 6.56161 15.5622 6.76849 15.5335 7.06099C15.5497 7.32786 15.2128 7.52974 14.9791 7.39224C14.7216 7.27786 14.6947 6.88786 14.9372 6.74224V6.74161ZM10.7872 7.27349C11.176 7.13599 11.6385 7.30036 11.8597 7.64224C12.1522 8.05911 11.9972 8.69411 11.5428 8.93349C11.0728 9.21661 10.386 8.97724 10.2116 8.45974C10.0147 7.99724 10.3022 7.41849 10.7866 7.27349H10.7872ZM8.5041 7.31911C8.93535 7.11911 9.51597 7.28661 9.7241 7.72036C9.9691 8.14286 9.77972 8.73099 9.3416 8.94911C8.90285 9.19474 8.28347 9.00849 8.0716 8.55536C7.83347 8.11661 8.04472 7.52099 8.5041 7.31911ZM6.21847 8.08724C6.2516 7.81411 6.51347 7.63599 6.77785 7.61724C6.91572 7.6318 7.04458 7.69271 7.14335 7.79C7.24212 7.8873 7.30496 8.01522 7.3216 8.15286C7.30285 8.43411 7.08222 8.70786 6.77972 8.70661C6.4466 8.73474 6.15472 8.40849 6.21847 8.08724ZM12.9697 7.67724C13.3116 7.48161 13.786 7.76599 13.771 8.15224C13.7941 8.56161 13.2691 8.84974 12.9291 8.60974C12.5753 8.40974 12.6028 7.84724 12.9697 7.67724ZM7.57597 9.11911C7.97472 9.01099 8.43222 9.19599 8.62785 9.55724C8.84222 9.92099 8.75472 10.426 8.4216 10.6935C7.99347 11.0847 7.20535 10.9272 6.97785 10.3935C6.71597 9.90411 7.0341 9.24786 7.57535 9.11849L7.57597 9.11911ZM11.9053 9.11724C12.2935 9.00786 12.7497 9.15474 12.9585 9.50286C13.2347 9.90099 13.1028 10.4954 12.6922 10.7516C12.261 11.0497 11.5947 10.8935 11.3572 10.4272C11.0697 9.94536 11.3591 9.26411 11.9053 9.11724ZM5.00535 9.57099C5.35035 9.44286 5.73285 9.81724 5.59285 10.1541C5.50785 10.4604 5.06847 10.5741 4.8416 10.3479C4.57597 10.1354 4.6741 9.66349 5.00535 9.57099ZM14.361 10.0597C14.3545 9.92216 14.4026 9.78758 14.4948 9.68528C14.5871 9.58299 14.716 9.52125 14.8535 9.51349C15.0897 9.55099 15.3197 9.73849 15.301 9.99161C15.3228 10.326 14.9135 10.5529 14.6235 10.396C14.4878 10.3279 14.4185 10.191 14.361 10.0597ZM3.30847 9.73724C3.51597 9.64786 3.77285 9.82474 3.72535 10.0516C3.7141 10.3085 3.32847 10.4079 3.18722 10.1929C3.06222 10.0435 3.13722 9.81411 3.30847 9.73661V9.73724ZM16.4016 9.73161C16.5478 9.62974 16.7828 9.70286 16.8403 9.87099C16.9385 10.0547 16.7585 10.306 16.5485 10.2754C16.2535 10.3016 16.1585 9.85974 16.4016 9.73161ZM8.70347 10.9647C9.24972 10.8254 9.83722 11.2735 9.84097 11.8272C9.87597 12.3866 9.29722 12.8822 8.73847 12.7535C8.30597 12.6847 7.9666 12.2747 7.98097 11.8454C7.97972 11.4341 8.29472 11.0516 8.70347 10.9647ZM10.8672 10.9641C11.4216 10.8116 12.0266 11.2679 12.0178 11.8341C12.0472 12.3829 11.4866 12.8622 10.9391 12.7529C10.4235 12.6879 10.0435 12.131 10.1872 11.6385C10.2597 11.311 10.5385 11.0447 10.8672 10.9635V10.9641ZM6.69472 11.3047C7.07847 11.2404 7.43847 11.661 7.28285 12.0197C7.1691 12.4022 6.6041 12.5054 6.3541 12.1935C6.0616 11.8935 6.28035 11.346 6.69472 11.3047ZM13.041 11.3216C13.3835 11.1804 13.8035 11.4716 13.7772 11.8372C13.791 12.2391 13.2722 12.5166 12.9378 12.2816C12.5585 12.071 12.6278 11.4504 13.041 11.3216ZM14.8147 13.0716C14.681 12.826 14.9241 12.5004 15.2022 12.546C15.3397 12.5435 15.4366 12.6504 15.5247 12.7404C15.5428 12.886 15.5735 13.0597 15.4503 13.1716C15.2835 13.3797 14.9053 13.3204 14.8147 13.0716ZM4.64722 12.6141C4.9066 12.4447 5.27972 12.6979 5.22097 12.9954C5.18972 13.2597 4.85222 13.4104 4.63035 13.2604C4.3916 13.1247 4.40035 12.7379 4.64722 12.6141ZM9.76785 13.166C10.1072 13.0191 10.5397 13.3097 10.5072 13.6772C10.5322 14.0835 9.99785 14.3647 9.66597 14.121C9.29722 13.9116 9.3591 13.2954 9.76785 13.166ZM7.3966 13.7104C7.68535 13.561 8.07285 13.8191 8.0466 14.1379C8.05535 14.3991 7.7966 14.6216 7.5341 14.5829C7.31722 14.5785 7.17597 14.3866 7.10597 14.2047C7.10972 14.0066 7.19285 13.786 7.3966 13.711V13.7104ZM12.2003 13.7154C12.4978 13.5341 12.9203 13.7941 12.8922 14.1341C12.8997 14.4904 12.4222 14.7179 12.1453 14.4841C11.8778 14.301 11.9103 13.861 12.2003 13.7154ZM13.036 15.7466C12.9035 15.5504 13.0591 15.3135 13.2735 15.2685C13.4466 15.3029 13.6297 15.431 13.5928 15.6272C13.5678 15.8941 13.1716 15.9754 13.036 15.7472V15.7466ZM6.4041 15.576C6.4566 15.4197 6.5841 15.2654 6.77097 15.306C7.04285 15.3247 7.12347 15.7285 6.88535 15.8529C6.6716 15.9947 6.42285 15.8004 6.4041 15.576ZM9.6041 15.7554C9.65597 15.5241 9.9591 15.4122 10.1591 15.5347C10.2916 15.591 10.3303 15.736 10.3641 15.8597C10.3463 15.924 10.3296 15.9886 10.3141 16.0535C10.2322 16.1485 10.1266 16.2441 9.99035 16.241C9.73722 16.2704 9.50847 15.9885 9.60347 15.7554H9.6041Z" fill="white"/>
</svg>
