<svg width="20" height="20" viewBox="0 0 20 20" fill="none" xmlns="http://www.w3.org/2000/svg">
<circle cx="10" cy="10" r="10" fill="#F7931A"/>
<path d="M14.4853 9.35999C14.7279 8.05262 13.7521 7.31089 12.4004 6.79142L12.9068 5.02668L11.8323 4.71847L11.3392 6.4367C11.0571 6.3557 10.7669 6.27842 10.4785 6.20183L10.9751 4.47228L9.90147 4.1641L9.39469 5.92821C9.16077 5.86621 8.93114 5.80497 8.7084 5.7412L8.70983 5.73569L7.22843 5.30993L6.89941 6.45727C6.89941 6.45727 7.69699 6.66983 7.67961 6.68065C8.11467 6.80567 8.18409 7.09892 8.16241 7.3287L7.58546 9.33912C7.61544 9.3479 7.65425 9.36039 7.69685 9.3792L7.58365 9.34678L6.77469 12.1631C6.71629 12.2945 6.57314 12.4897 6.269 12.403C6.27925 12.4191 5.48821 12.1787 5.48821 12.1787L4.90656 13.4006L6.30477 13.8018C6.56482 13.8767 6.81951 13.9546 7.07003 14.0283L6.55818 15.8136L7.63115 16.1217L8.1383 14.3558C8.43086 14.4464 8.71531 14.5306 8.99374 14.6103L8.48873 16.3679L9.56294 16.6761L10.0747 14.8946C11.9103 15.3093 13.3052 15.2172 13.9483 13.5666C14.4669 12.2375 13.9998 11.4438 13.0453 10.9031C13.7591 10.7641 14.3089 10.3171 14.485 9.35998L14.4853 9.35999Z" fill="white"/>
<path d="M11.8862 12.7454C11.5037 14.0794 9.2637 13.2724 8.53521 13.0639L9.21424 10.6992C9.9424 10.9084 12.285 11.3542 11.8865 12.7454L11.8862 12.7454Z" fill="#F7931A"/>
<path d="M12.3429 9.26576C11.9942 10.4792 10.1302 9.79085 9.52348 9.61684L10.1391 7.47211C10.7459 7.64612 12.7063 8.00003 12.3429 9.26576Z" fill="#F7931A"/>
</svg>
