<svg width="21" height="20" viewBox="0 0 21 20" fill="none" xmlns="http://www.w3.org/2000/svg">
<g clip-path="url(#clip0_7134_33432)">
<path d="M10.5 0C16.0234 0 20.5 4.47754 20.5 10C20.5 15.5234 16.0234 20 10.5 20C4.97754 20 0.5 15.5229 0.5 10C0.5 4.47754 4.97754 0 10.5 0Z" fill="#F5AC37"/>
<path d="M10.8682 10.706H14.668C14.749 10.706 14.7873 10.706 14.7931 10.5998C14.8242 10.2133 14.8242 9.82446 14.7931 9.43745C14.7931 9.3623 14.7558 9.33125 14.6743 9.33125H7.11198C7.01838 9.33125 6.99318 9.3623 6.99318 9.45005V10.5625C6.99318 10.706 6.99318 10.706 7.14303 10.706H10.8682ZM14.3688 8.03119C14.3796 8.00284 14.3796 7.97179 14.3688 7.94389C14.3053 7.80574 14.2302 7.67389 14.1429 7.55014C14.0115 7.33863 13.8567 7.14378 13.6802 6.96873C13.597 6.86298 13.5007 6.76803 13.3927 6.68748C12.8518 6.22712 12.2087 5.90132 11.5175 5.73752C11.1688 5.65922 10.8124 5.62187 10.4551 5.62502H7.09893C7.00533 5.62502 6.99273 5.66237 6.99273 5.74382V7.96234C6.99273 8.05594 6.99273 8.08114 7.11153 8.08114H14.3238C14.3238 8.08114 14.3863 8.06854 14.3989 8.03119H14.3683H14.3688ZM14.3688 12.0061C14.2626 11.9944 14.1555 11.9944 14.0493 12.0061H7.11828C7.02468 12.0061 6.99318 12.0061 6.99318 12.1312V14.3002C6.99318 14.4001 6.99318 14.4253 7.11828 14.4253H10.3183C10.4713 14.437 10.6243 14.4262 10.7741 14.3943C11.2385 14.361 11.6953 14.2602 12.1309 14.0941C12.2893 14.0392 12.4423 13.9676 12.5867 13.8817H12.6304C13.3805 13.4915 13.9899 12.8786 14.3742 12.1262C14.3742 12.1262 14.4178 12.0317 14.3688 12.007V12.0061ZM5.73722 15.5499V15.5125V14.0563V13.5626V12.0938C5.73722 12.0124 5.73722 12.0002 5.63732 12.0002H4.28101C4.20586 12.0002 4.1748 12.0002 4.1748 11.9003V10.7128H5.62472C5.70572 10.7128 5.73722 10.7128 5.73722 10.6066V9.4316C5.73722 9.35645 5.73722 9.338 5.63732 9.338H4.28101C4.20586 9.338 4.1748 9.338 4.1748 9.2381V8.13829C4.1748 8.06944 4.1748 8.05099 4.27471 8.05099H5.61842C5.71202 8.05099 5.73722 8.05099 5.73722 7.93219V4.56346C5.73722 4.46356 5.73722 4.43835 5.86232 4.43835H10.5496C10.8898 4.45185 11.2277 4.4892 11.5621 4.55086C12.251 4.67821 12.913 4.92436 13.5182 5.27581C13.9197 5.51207 14.2891 5.79737 14.6181 6.12587C14.8656 6.38282 15.0888 6.66093 15.2868 6.95703C15.4834 7.25718 15.6468 7.57804 15.775 7.91329C15.7908 8.00059 15.8745 8.05954 15.9618 8.04469H17.0805C17.224 8.04469 17.224 8.04469 17.2303 8.18239V9.2075C17.2303 9.3074 17.193 9.3326 17.0926 9.3326H16.23C16.1427 9.3326 16.1175 9.3326 16.1238 9.4451C16.158 9.82581 16.158 10.2079 16.1238 10.5886C16.1238 10.6948 16.1238 10.7074 16.243 10.7074H17.2299C17.2735 10.7636 17.2299 10.8199 17.2299 10.8766C17.2362 10.949 17.2362 11.0224 17.2299 11.0948V11.8513C17.2299 11.9575 17.1988 11.989 17.1048 11.989H15.9235C15.8412 11.9732 15.7611 12.0259 15.7422 12.1078C15.4609 12.839 15.0109 13.4947 14.4295 14.0203C14.2171 14.2116 13.9939 14.3916 13.7608 14.5576C13.5106 14.7016 13.2671 14.8515 13.0106 14.9703C12.5386 15.1827 12.0436 15.3393 11.5355 15.4387C11.0531 15.5251 10.564 15.5643 10.073 15.5575H5.73542V15.5512L5.73722 15.5499Z" fill="#FEFEFD"/>
</g>
<defs>
<clipPath id="clip0_7134_33432">
<rect width="20" height="20" fill="white" transform="translate(0.5)"/>
</clipPath>
</defs>
</svg>
