<svg width="20" height="17" viewBox="0 0 20 17" fill="none" xmlns="http://www.w3.org/2000/svg">
<path fill-rule="evenodd" clip-rule="evenodd" d="M5.17654 12.3308V16.5198H11.6321C13.0284 16.4624 16.2801 15.6016 18.1163 12.6177C18.6614 11.8335 19.6484 9.57646 19.2353 6.8221C18.9484 5.09106 17.3302 1.36502 13.1527 0.309177C12.751 0.203975 11.7296 0.00504917 10.8574 0.0509552H0.585938V4.1825C0.633756 5.78921 1.61882 9.41006 5.17654 11.0397C5.64517 11.2979 7.05295 11.8201 8.9351 11.8431H11.6321C12.5311 11.6614 14.3864 10.7471 14.616 8.54358C14.6734 7.2716 14.002 4.7219 10.8574 4.69895H5.17654V8.19928C4.41144 7.72109 2.88124 6.16794 2.88124 3.78082V2.37495H11.4026C12.9997 2.49928 16.3317 3.68327 16.8826 7.42462C17.1026 8.73485 16.8539 11.7455 14.0995 13.3063C13.6979 13.5837 12.5961 14.1384 11.4026 14.1384H7.55792V12.9333C7.03191 12.8473 5.81923 12.6063 5.17654 12.3308ZM7.58586 7.16644V9.49043H11.4018C11.6887 9.3948 12.2625 9.0199 12.2625 8.2854C12.253 7.91241 12.0273 7.16644 11.201 7.16644H7.58586Z" fill="#007aff"/>
</svg>
