<svg width="20" height="20" viewBox="0 0 20 20" fill="none" xmlns="http://www.w3.org/2000/svg">
<path d="M10 20C15.5228 20 20 15.5228 20 10C20 4.47715 15.5228 0 10 0C4.47715 0 0 4.47715 0 10C0 15.5228 4.47715 20 10 20Z" fill="#627EEA"/>
<path d="M10.3125 2.5V8.04375L14.9981 10.1375L10.3125 2.5Z" fill="white" fill-opacity="0.602"/>
<path d="M10.3112 2.5L5.625 10.1375L10.3112 8.04375V2.5Z" fill="white"/>
<path d="M10.3125 13.7293V17.4962L15.0013 11.0093L10.3125 13.7293Z" fill="white" fill-opacity="0.602"/>
<path d="M10.3112 17.4962V13.7287L5.625 11.0093L10.3112 17.4962Z" fill="white"/>
<path d="M10.3125 12.8585L14.9981 10.1379L10.3125 8.04541V12.8585Z" fill="white" fill-opacity="0.2"/>
<path d="M5.625 10.1379L10.3112 12.8585V8.04541L5.625 10.1379Z" fill="white" fill-opacity="0.602"/>
</svg>
