<svg width="109" height="31" viewBox="0 0 109 31" fill="none" xmlns="http://www.w3.org/2000/svg">
<path fill-rule="evenodd" clip-rule="evenodd" d="M8.35893 23.3725V31H20.1137C22.6562 30.8955 28.5771 29.3282 31.9207 23.8949C32.9133 22.4669 34.7105 18.3571 33.9582 13.3417C33.4357 10.1897 30.4892 3.40506 22.8826 1.48251C22.1512 1.29095 20.2913 0.92873 18.7031 1.01232H0V8.53536C0.0870722 11.461 1.88076 18.0541 8.35893 21.0215C9.21224 21.4917 11.7756 22.4425 15.2028 22.4843H20.1137C21.7506 22.1535 25.129 20.4886 25.547 16.4764C25.6515 14.1602 24.429 9.51754 18.7031 9.47574H8.35893V15.8494C6.96578 14.9787 4.17947 12.1506 4.17947 7.80396V5.24403H19.6957C22.604 5.47042 28.6711 7.62633 29.6742 14.4389C30.0747 16.8246 29.622 22.3067 24.6066 25.1487C23.8752 25.6538 21.8691 26.6638 19.6957 26.6638H12.6951V24.4696C11.7373 24.3129 9.52919 23.874 8.35893 23.3725ZM12.7474 13.9687V18.2004H19.6957C20.2182 18.0263 21.2631 17.3436 21.2631 16.0062C21.2456 15.327 20.8347 13.9687 19.33 13.9687H12.7474Z" fill="#7AC231"/>
<path d="M48.848 6.72V24H55.448C58.232 24 60.464 23.232 62.12 21.672C63.776 20.112 64.616 18 64.616 15.36C64.616 12.72 63.776 10.632 62.12 9.072C60.464 7.512 58.232 6.72 55.448 6.72H48.848ZM52.76 20.664V10.056H55.448C56.96 10.056 58.208 10.56 59.144 11.544C60.08 12.528 60.56 13.8 60.56 15.36C60.56 16.92 60.08 18.216 59.144 19.2C58.208 20.184 56.96 20.664 55.448 20.664H52.76ZM72.5247 21.528C70.9888 21.528 69.9088 20.544 69.6208 18.912H77.9008C78.0208 18.504 78.0928 18.096 78.0928 17.64C78.0928 15.936 77.5648 14.568 76.4848 13.536C75.4048 12.504 73.9888 12 72.2128 12C70.3648 12 68.8768 12.576 67.7728 13.728C66.6688 14.856 66.1168 16.344 66.1168 18.192C66.1168 20.04 66.7168 21.528 67.8928 22.68C69.0688 23.808 70.6048 24.384 72.5008 24.384C75.1648 24.384 77.0128 23.208 78.0448 20.832L75.3328 19.8C74.7328 20.952 73.7968 21.528 72.5247 21.528ZM69.6208 16.8C69.9328 15.384 70.7488 14.688 72.1168 14.688C73.4848 14.688 74.2768 15.384 74.5408 16.8H69.6208ZM88.0921 12C86.1961 12 84.7561 12.696 83.7481 14.064V12.384H80.2921V29.28H84.0841V22.728C85.0681 23.832 86.4121 24.384 88.0921 24.384C89.8681 24.384 91.3081 23.808 92.3881 22.656C93.4921 21.504 94.0441 20.016 94.0441 18.192C94.0441 16.368 93.4921 14.88 92.3881 13.728C91.2841 12.576 89.8441 12 88.0921 12ZM90.3241 18.192C90.3241 20.016 89.0281 21.312 87.2041 21.312C85.3801 21.312 84.0841 19.992 84.0841 18.192C84.0841 16.392 85.3801 15.072 87.2041 15.072C89.0281 15.072 90.3241 16.392 90.3241 18.192ZM101.775 24.384C103.623 24.384 105.135 23.808 106.359 22.656C107.583 21.48 108.207 19.992 108.207 18.192C108.207 16.392 107.583 14.904 106.359 13.752C105.135 12.576 103.623 12 101.775 12C99.9273 12 98.3913 12.576 97.1673 13.752C95.9433 14.904 95.3433 16.392 95.3433 18.192C95.3433 19.992 95.9433 21.48 97.1673 22.656C98.3913 23.808 99.9273 24.384 101.775 24.384ZM104.631 18.192C104.631 19.92 103.503 21.216 101.775 21.216C100.047 21.216 98.9193 19.92 98.9193 18.192C98.9193 16.464 100.047 15.168 101.775 15.168C103.503 15.168 104.631 16.44 104.631 18.192Z" fill="white"/>
</svg>
