<svg width="35" height="30" viewBox="0 0 35 30" fill="none" xmlns="http://www.w3.org/2000/svg">
<path fill-rule="evenodd" clip-rule="evenodd" d="M8.35893 22.3725V30H20.1137C22.6562 29.8955 28.5771 28.3282 31.9207 22.8949C32.9133 21.4669 34.7105 17.3571 33.9582 12.3417C33.4357 9.18973 30.4892 2.40506 22.8826 0.48251C22.1512 0.290951 20.2913 -0.0712697 18.7031 0.0123197H0V7.53536C0.0870722 10.461 1.88076 17.0541 8.35893 20.0215C9.21224 20.4917 11.7756 21.4425 15.2028 21.4843H20.1137C21.7506 21.1535 25.129 19.4886 25.547 15.4764C25.6515 13.1602 24.429 8.51754 18.7031 8.47574H8.35893V14.8494C6.96578 13.9787 4.17947 11.1506 4.17947 6.80396V4.24403H19.6957C22.604 4.47042 28.6711 6.62633 29.6742 13.4389C30.0747 15.8246 29.622 21.3067 24.6066 24.1487C23.8752 24.6538 21.8691 25.6638 19.6957 25.6638H12.6951V23.4696C11.7373 23.3129 9.52919 22.874 8.35893 22.3725ZM12.7474 12.9687V17.2004H19.6957C20.2182 17.0263 21.2631 16.3436 21.2631 15.0062C21.2456 14.327 20.8347 12.9687 19.33 12.9687H12.7474Z" fill="#007aff"/>
</svg>
