<svg width="21" height="20" viewBox="0 0 21 20" fill="none" xmlns="http://www.w3.org/2000/svg">
<g clip-path="url(#clip0_7134_33424)">
<path d="M10.5 0C4.9583 0 0.5 4.4583 0.5 10C0.5 15.5417 4.9583 20 10.5 20C16.0417 20 20.5 15.5417 20.5 10C20.5 4.4583 16.0417 0 10.5 0Z" fill="#2775CA"/>
<path d="M7.74971 8.41674C7.74971 9.87504 8.62471 10.375 10.3747 10.5833C11.6247 10.75 11.8747 11.0833 11.8747 11.6667C11.8747 12.2501 11.458 12.625 10.6247 12.625C9.87471 12.625 9.45801 12.375 9.24971 11.75C9.20801 11.625 9.08301 11.5417 8.95801 11.5417H8.29141C8.12471 11.5417 7.99971 11.6667 7.99971 11.8333V11.875C8.16641 12.7917 8.91641 13.5 9.87471 13.5833V14.5833C9.87471 14.75 9.99971 14.875 10.208 14.9167H10.833C10.9997 14.9167 11.1247 14.7917 11.1664 14.5833V13.625C12.4164 13.4583 13.208 12.625 13.208 11.5833C13.208 10.2083 12.3747 9.66674 10.6247 9.45834C9.45801 9.25004 9.08301 9.00004 9.08301 8.33334C9.08301 7.66664 9.66641 7.20834 10.458 7.20834C11.5414 7.20834 11.9164 7.66674 12.0414 8.29174C12.083 8.45834 12.208 8.54174 12.333 8.54174H13.0414C13.208 8.54174 13.333 8.41674 13.333 8.25004V8.20834C13.1664 7.16674 12.4997 6.41674 11.1247 6.20834V5.20834C11.1247 5.04174 10.9997 4.91674 10.7914 4.87504H10.1664C9.99971 4.87504 9.87471 5.00004 9.83301 5.20834V6.20834C8.58301 6.41674 7.74971 7.29174 7.74971 8.41674Z" fill="white"/>
<path d="M12.6252 4.04164C15.8752 5.20824 17.5419 8.83324 16.3335 12.0416C15.7085 13.7916 14.3335 15.1249 12.6252 15.75C12.4585 15.8333 12.3752 15.9583 12.3752 16.1667V16.75C12.3752 16.9167 12.4585 17.0417 12.6252 17.0833C12.6669 17.0833 12.7502 17.0833 12.7919 17.0417C16.7502 15.7917 18.9169 11.5832 17.6669 7.62494C16.9169 5.29164 15.1252 3.49994 12.7919 2.74994C12.6252 2.66664 12.4585 2.74994 12.4169 2.91664C12.3752 2.95824 12.3752 2.99994 12.3752 3.08324V3.66664C12.3752 3.79164 12.5002 3.95824 12.6252 4.04164ZM8.20846 17.0417C8.37516 17.125 8.54186 17.0417 8.58346 16.875C8.62516 16.8333 8.62516 16.7917 8.62516 16.7083V16.125C8.62516 15.9583 8.50016 15.7917 8.37516 15.7083C5.12516 14.5416 3.45846 10.9166 4.66686 7.70824C5.29186 5.95824 6.66686 4.62494 8.37516 3.99994C8.54186 3.91664 8.62516 3.79164 8.62516 3.58324V2.99994C8.62516 2.83324 8.54186 2.70824 8.37516 2.66664C8.33346 2.66664 8.25016 2.66663 8.20846 2.70823C4.25016 3.95824 2.08345 8.16664 3.33346 12.1249C4.08346 14.4999 5.91686 16.2917 8.20846 17.0417Z" fill="white"/>
</g>
<defs>
<clipPath id="clip0_7134_33424">
<rect width="20" height="20" fill="white" transform="translate(20.5 20) rotate(-180)"/>
</clipPath>
</defs>
</svg>
