<svg width="22" height="22" viewBox="0 0 22 22" fill="none" xmlns="http://www.w3.org/2000/svg">
<path d="M7.84716 17.0228C7.73536 16.9475 7.5983 16.9195 7.46593 16.945C7.33357 16.9704 7.21667 17.0473 7.1408 17.1587C7.00422 17.361 6.8246 17.5306 6.61479 17.6553C6.40499 17.78 6.17019 17.8568 5.92722 17.8802C5.68426 17.9035 5.43914 17.8729 5.20942 17.7904C4.97969 17.7079 4.77106 17.5756 4.59846 17.403C4.42586 17.2304 4.29356 17.0218 4.21104 16.7921C4.12852 16.5624 4.09783 16.3172 4.12116 16.0743C4.14448 15.8313 4.22125 15.5965 4.34597 15.3867C4.47068 15.1769 4.64026 14.9972 4.84254 14.8606C4.95434 14.785 5.0315 14.668 5.05704 14.5354C5.08258 14.4028 5.05441 14.2655 4.97873 14.1537C4.90304 14.0419 4.78605 13.9648 4.65348 13.9392C4.52091 13.9137 4.38363 13.9419 4.27183 14.0176C3.94536 14.2382 3.67172 14.5284 3.4705 14.8672C3.26927 15.206 3.14545 15.5851 3.10788 15.9774C3.07031 16.3696 3.11993 16.7654 3.25319 17.1362C3.38645 17.5071 3.60005 17.8439 3.8787 18.1225C4.15735 18.4011 4.49415 18.6147 4.865 18.748C5.23585 18.8812 5.63158 18.9308 6.02384 18.8932C6.41611 18.8556 6.79521 18.7318 7.13402 18.5306C7.47282 18.3293 7.76295 18.0557 7.98362 17.7292C8.05913 17.6174 8.08717 17.4802 8.06159 17.3478C8.036 17.2153 7.95887 17.0984 7.84715 17.0228L7.84716 17.0228Z" fill="#007aff"/>
<path d="M20.2731 3.30955L21.0468 2.53589C21.2567 2.32595 21.3747 2.0412 21.3747 1.74429C21.3747 1.44739 21.2567 1.16264 21.0468 0.952693C20.8369 0.742748 20.5521 0.624802 20.2552 0.624801C19.9583 0.624801 19.6735 0.742747 19.4636 0.952691L18.6899 1.72636C17.3553 0.768362 15.7238 0.315665 14.0864 0.449029C12.449 0.582392 10.9123 1.29314 9.75029 2.45448L5.72845 6.47631L1.85116 6.98347L0.425781 8.40885L13.5906 21.5737L15.016 20.1483L15.5232 16.271L19.545 12.2492C20.7063 11.0872 21.4171 9.55046 21.5504 7.91306C21.6838 6.27566 21.2311 4.64413 20.2731 3.30955L20.2731 3.30955ZM14.6477 3.67253C14.1643 3.6712 13.6854 3.76574 13.2388 3.95069C12.7922 4.13564 12.3867 4.40731 12.0458 4.75L10.8536 5.94224C10.7994 5.99648 10.7351 6.03952 10.6643 6.0689C10.5935 6.09828 10.5176 6.11342 10.441 6.11345C10.3643 6.11348 10.2884 6.09841 10.2176 6.0691C10.1468 6.03978 10.0825 5.9968 10.0283 5.9426C9.97406 5.8884 9.93107 5.82405 9.90175 5.75323C9.87244 5.68241 9.85737 5.60651 9.8574 5.52986C9.85743 5.45322 9.87257 5.37733 9.90195 5.30654C9.93133 5.23574 9.97437 5.17143 10.0286 5.11728L11.2209 3.92504C11.6698 3.47361 12.2038 3.11576 12.7921 2.87219C13.3803 2.62863 14.011 2.5042 14.6477 2.50612C14.8023 2.50612 14.9507 2.56756 15.06 2.67693C15.1694 2.7863 15.2309 2.93465 15.2309 3.08932C15.2309 3.244 15.1694 3.39234 15.06 3.50171C14.9507 3.61108 14.8023 3.67253 14.6477 3.67253V3.67253Z" fill="#007aff"/>
</svg>
