<svg width="65" height="66" viewBox="0 0 65 66" fill="none" xmlns="http://www.w3.org/2000/svg">
<path d="M61.75 21.5926V8.88148C63.6188 8.31111 65 6.6 65 4.56296C65 2.11852 62.9688 0.0814815 60.5312 0.0814815C58.0938 0.0814815 56.0625 2.11852 56.0625 4.56296C56.0625 6.6 57.4437 8.31111 59.3125 8.88148V21.2667H58.9875C55.6562 8.14815 45.5812 0 32.5 0C19.4187 0 9.34375 8.06667 6.0125 21.2667H4.875C2.19375 21.2667 0 23.4667 0 26.1556V35.9333C0 38.6222 2.19375 40.8222 4.875 40.8222H6.41875C7.71875 44.4889 9.75 47.7481 12.5125 50.437L10.3187 52.637C9.75 53.2074 9.66875 54.1037 10.1562 54.7556C15.1125 61.437 23.2375 65.3481 32.4188 65.3481C41.6 65.3481 49.725 61.5193 54.6813 54.7556C55.1696 54.1037 55.0875 53.2082 54.5187 52.637L52.325 50.437C55.0063 47.8296 57.1179 44.4889 58.4188 40.8222H60.125C62.8063 40.8222 65 38.6222 65 35.9333V26.1556C65 24.037 63.6188 22.2444 61.75 21.5926ZM62.5625 32.6741H59.3125C59.3125 32.1037 59.3937 31.5333 59.3937 30.8815C59.3937 28.3556 59.15 25.9926 58.7438 23.7111H60.125C61.5062 23.7111 62.5625 24.7704 62.5625 26.1556V32.6741ZM60.125 38.3778H58.4188C58.7429 37.0741 58.9867 35.6889 59.1492 34.3037H62.5625V35.9333C62.5625 37.3185 61.5062 38.3778 60.125 38.3778ZM32.5 62.8222C24.375 62.8222 17.1437 59.563 12.5938 53.7778L14.8687 51.4955C19.4187 55.0807 25.4312 57.1177 32.5 57.1177C39.5687 57.1177 45.5812 55.0807 50.1313 51.4955L52.4062 53.7778C47.8563 59.563 40.625 62.8222 32.5 62.8222ZM4.875 23.7111H6.3375C5.93125 25.9926 5.6875 28.437 5.6875 30.8815C5.6875 31.4519 5.6875 32.0222 5.76875 32.6741H2.51875V26.1556C2.4375 24.7704 3.49375 23.7111 4.875 23.7111ZM32.5 13.9333C44.6063 13.9333 54.4375 22.8148 54.4375 33.7333C54.4375 45.5481 43.3875 50.8444 32.5 50.8444C21.6125 50.8444 10.5625 45.5481 10.5625 33.7333C10.5625 22.8148 20.3938 13.9333 32.5 13.9333ZM32.5 12.3037C29.6562 12.3037 26.8937 12.7926 24.375 13.6074V3.74815C26.8937 2.93333 29.575 2.52593 32.5 2.52593C35.425 2.52593 38.1063 2.93333 40.625 3.74815V13.6889C38.1063 12.7926 35.3438 12.3037 32.5 12.3037ZM22.75 4.31852V14.2593C14.625 17.6 8.9375 25.0963 8.9375 33.7333C8.9375 44.8963 18.4438 52.4741 32.5 52.4741C46.5562 52.4741 56.0625 44.9778 56.0625 33.7333C56.0625 25.0963 50.375 17.6 42.25 14.2593V4.31852C51.7562 8.14815 57.6875 17.9259 57.6875 30.963C57.6875 45.6296 47.6125 55.4889 32.5 55.4889C17.3875 55.4889 7.3125 45.6296 7.3125 30.8815C7.3125 17.9259 13.2438 8.14815 22.75 4.31852ZM2.4375 34.3037H5.85C6.0125 35.6889 6.25625 37.0741 6.58125 38.3778H4.875C3.49375 38.3778 2.4375 37.3185 2.4375 35.9333V34.3037ZM58.5 4.56296C58.5 3.42222 59.3937 2.52593 60.5312 2.52593C61.6688 2.52593 62.5625 3.42222 62.5625 4.56296C62.5625 5.7037 61.6688 6.6 60.5312 6.6C59.3937 6.6 58.5 5.7037 58.5 4.56296Z" fill="#08B689"/>
</svg>
