<svg width="23" height="22" viewBox="0 0 23 22" fill="none" xmlns="http://www.w3.org/2000/svg">
<path d="M21.41 9.54159L19.36 7.49159V4.58159C19.36 4.05115 19.1493 3.54244 18.7742 3.16737C18.3991 2.7923 17.8904 2.58159 17.36 2.58159H14.46L12.41 0.581585C12.0353 0.209084 11.5284 0 11 0C10.4716 0 9.96473 0.209084 9.59 0.581585L7.54 2.59159H4.63C4.09957 2.59159 3.59086 2.8023 3.21579 3.17737C2.84071 3.55244 2.63 4.06115 2.63 4.59159V7.49159L0.630001 9.54159C0.436775 9.72312 0.281571 9.94126 0.173416 10.1833C0.0652612 10.4254 0.00631313 10.6865 6.37712e-07 10.9516C-0.000420824 11.4797 0.20808 11.9866 0.580001 12.3616L2.64 14.4116V17.3216C2.64 17.852 2.85071 18.3607 3.22579 18.7358C3.60086 19.1109 4.10957 19.3216 4.64 19.3216H7.54L9.59 21.3716C9.96498 21.7435 10.4719 21.952 11 21.9516C11.5281 21.952 12.035 21.7435 12.41 21.3716L14.46 19.3116H17.37C17.9004 19.3116 18.4091 19.1009 18.7842 18.7258C19.1593 18.3507 19.37 17.842 19.37 17.3116V14.4116L21.42 12.3616C21.7925 11.9869 22.0016 11.48 22.0016 10.9516C22.0016 10.4232 21.7925 9.91631 21.42 9.54159H21.41ZM17.36 13.5916V17.3116H13.64L11 19.9516L8.36 17.3116H4.64V13.5916L2 10.9516L4.64 8.31159V4.59159H8.36L11 1.95159L13.64 4.59159H17.36V8.31159L20 10.9516L17.36 13.5916Z" fill="#007aff"/>
<path d="M9.99906 11.6816L7.70906 9.3916L6.28906 10.8016L9.99906 14.5116L15.7091 8.8016L14.2891 7.3916L9.99906 11.6816Z" fill="#007aff"/>
</svg>
