<svg width="365" height="365" viewBox="0 0 365 365" fill="none" xmlns="http://www.w3.org/2000/svg">
<g filter="url(#filter0_i)">
<path d="M365 182.5C365 225.827 349.586 267.74 321.514 300.743C293.443 333.745 254.545 355.685 211.78 362.636C169.015 369.587 125.171 361.097 88.0921 338.684C51.0131 316.271 23.1175 281.397 9.39518 240.301L18.0504 237.411C31.0866 276.452 57.5875 309.582 92.8125 330.875C128.038 352.167 169.689 360.233 210.316 353.629C250.943 347.025 287.895 326.183 314.563 294.831C341.231 263.478 355.875 223.66 355.875 182.5H365Z" fill="#42FF00"/>
<path d="M182.5 0C230.591 5.7348e-07 276.738 18.982 310.911 52.8199C345.083 86.6577 364.518 132.616 364.991 180.705L355.867 180.795C355.417 135.11 336.954 91.4498 304.49 59.3039C272.026 27.1579 228.186 9.125 182.5 9.125V0Z" fill="#FFA800"/>
<mask id="path-3-inside-1" fill="white">
<path d="M8.81056 238.52C0.0265202 211.285 -2.22988 182.366 2.22355 154.098C6.67698 125.831 17.7154 99.0063 34.4476 75.7914C51.1797 52.5765 73.1366 33.6216 98.5452 20.4573C123.954 7.29298 152.102 0.288256 180.717 0.00870814L180.806 9.13327C153.622 9.39884 126.881 16.0533 102.743 28.5594C78.6048 41.0655 57.7457 59.0726 41.8502 81.1268C25.9547 103.181 15.4681 128.664 11.2374 155.518C7.00661 182.373 9.15019 209.846 17.495 235.719L8.81056 238.52Z"/>
</mask>
<path d="M8.81056 238.52C0.0265202 211.285 -2.22988 182.366 2.22355 154.098C6.67698 125.831 17.7154 99.0063 34.4476 75.7914C51.1797 52.5765 73.1366 33.6216 98.5452 20.4573C123.954 7.29298 152.102 0.288256 180.717 0.00870814L180.806 9.13327C153.622 9.39884 126.881 16.0533 102.743 28.5594C78.6048 41.0655 57.7457 59.0726 41.8502 81.1268C25.9547 103.181 15.4681 128.664 11.2374 155.518C7.00661 182.373 9.15019 209.846 17.495 235.719L8.81056 238.52Z" fill="#00C2FF" stroke="black" stroke-width="2" stroke-miterlimit="3.23955" mask="url(#path-3-inside-1)"/>
</g>
<defs>
<filter id="filter0_i" x="0" y="0" width="365" height="365" filterUnits="userSpaceOnUse" color-interpolation-filters="sRGB">
<feFlood flood-opacity="0" result="BackgroundImageFix"/>
<feBlend mode="normal" in="SourceGraphic" in2="BackgroundImageFix" result="shape"/>
<feColorMatrix in="SourceAlpha" type="matrix" values="0 0 0 0 0 0 0 0 0 0 0 0 0 0 0 0 0 0 127 0" result="hardAlpha"/>
<feOffset/>
<feGaussianBlur stdDeviation="2"/>
<feComposite in2="hardAlpha" operator="arithmetic" k2="-1" k3="1"/>
<feColorMatrix type="matrix" values="0 0 0 0 0 0 0 0 0 0 0 0 0 0 0 0 0 0 0.5 0"/>
<feBlend mode="normal" in2="shape" result="effect1_innerShadow"/>
</filter>
</defs>
</svg>
