<svg width="36" height="36" viewBox="0 0 36 36" fill="none" xmlns="http://www.w3.org/2000/svg">
<path fill-rule="evenodd" clip-rule="evenodd" d="M22.6964 1.38148C31.9091 3.83716 37.3679 13.3001 34.9122 22.4972C32.4566 31.7099 22.9936 37.1687 13.7965 34.713C4.58383 32.2573 -0.874977 22.7944 1.5807 13.5973C4.03638 4.38461 13.4993 -1.0742 22.6964 1.38148ZM19.0364 15.0832C20.6787 15.5212 21.6484 17.2104 21.2105 18.8371C20.7725 20.4795 19.0833 21.4492 17.4566 21.0113C15.8143 20.5733 14.8445 18.8841 15.2825 17.2574C15.7204 15.615 17.4097 14.6453 19.0364 15.0832ZM11.1532 22.1531C12.2011 23.9675 13.9529 25.3908 16.1271 25.9696C18.3169 26.5483 20.5379 26.1885 22.3523 25.1406C24.1667 24.0926 25.59 22.3408 26.1688 20.1666C26.2001 20.0415 26.2313 19.9007 26.2626 19.7756V21.6682C26.4503 21.2459 26.6224 20.7923 26.7475 20.3231C26.8101 20.1041 26.857 19.8851 26.9039 19.6661C26.9039 19.6818 26.8883 19.713 26.8883 19.7287L33.8956 21.0895C34.3022 19.0092 34.2866 16.9445 33.8956 14.9737L26.8883 16.3502L26.9039 16.4127C26.7788 15.7402 26.5754 15.0989 26.2939 14.4732V16.3502C26.1062 15.5055 25.7934 14.6922 25.3711 13.9414C24.3231 12.127 22.5713 10.7037 20.3971 10.125C18.2074 9.54622 15.9863 9.90597 14.1719 10.9539C12.3575 12.0019 10.9342 13.7537 10.3555 15.9279C9.77673 18.1176 10.1365 20.3387 11.1844 22.1531H11.1532ZM26.2783 19.6974C26.5129 18.5712 26.4972 17.4451 26.2783 16.3815V14.4732L32.8007 11.5639C31.9717 9.687 30.7829 7.9821 29.297 6.55874L24.3387 11.7047L24.37 11.736C23.8851 11.2668 23.3533 10.8444 22.759 10.5003L22.7746 10.516L26.4503 4.40025C25.199 3.64947 23.8226 3.0551 22.3523 2.66407C21.8049 2.5233 21.2574 2.39817 20.71 2.31996L19.5994 9.37417H19.6307C18.6766 9.21776 17.7225 9.2334 16.7997 9.38981C16.8309 9.38981 16.8466 9.37417 16.8779 9.37417L15.7673 2.31996C13.7183 2.64843 11.7788 3.36792 10.027 4.41589L13.7183 10.5316L13.7652 10.5003C13.1709 10.8601 12.6234 11.2824 12.1229 11.7673L12.1542 11.736L7.19592 6.59002C5.74128 7.99774 4.5369 9.687 3.69227 11.5952L10.2303 14.4889L10.2616 14.4419C10.0739 14.8643 9.90186 15.3179 9.77673 15.7871C9.71416 16.0061 9.66724 16.225 9.62031 16.444C9.62031 16.4284 9.63595 16.3971 9.63595 16.3815L2.62867 15.0207C2.22199 17.101 2.23763 19.1656 2.62867 21.1364L9.63595 19.76L9.62031 19.6974C9.74544 20.37 9.94878 21.0113 10.2303 21.6369L3.70791 24.5462C4.5369 26.4231 5.72564 28.128 7.21156 29.5514L12.1698 24.4054C12.1386 24.3741 12.1073 24.3429 12.076 24.3116C12.5922 24.8121 13.1552 25.2657 13.7965 25.6411C13.7809 25.6254 13.7652 25.6254 13.734 25.6098L10.0583 31.7255C11.3096 32.4763 12.686 33.0707 14.1563 33.4617C14.7037 33.6025 15.2512 33.7276 15.7986 33.8058L16.9091 26.7516H16.8779C17.832 26.908 18.7861 26.8924 19.7089 26.736C19.6776 26.736 19.662 26.7516 19.6307 26.7516L20.7413 33.8058C22.7903 33.4774 24.7298 32.7579 26.4816 31.7099L22.7903 25.5942L22.7433 25.6254C23.3377 25.2657 23.8851 24.8434 24.3857 24.3585L24.3544 24.3898L29.3127 29.5358C30.7673 28.128 31.9717 26.4388 32.8163 24.5306L26.2783 21.6369L26.247 21.6838L26.2783 21.6369V19.7287V19.6974ZM19.8184 12.174C23.0718 13.0499 24.9957 16.3815 24.1354 19.6348C23.2595 22.8882 19.9279 24.8121 16.6745 23.9518C13.4211 23.0759 11.4973 19.7443 12.3575 16.4909C13.2334 13.2376 16.565 11.3137 19.8184 12.174Z" fill="#007aff"/>
</svg>
