<svg width="108" height="36" viewBox="0 0 108 36" fill="none" xmlns="http://www.w3.org/2000/svg">
<path fill-rule="evenodd" clip-rule="evenodd" d="M94.6964 1.38148C103.909 3.83716 109.368 13.3001 106.912 22.4972C104.457 31.7099 94.9936 37.1687 85.7965 34.713C76.5838 32.2573 71.125 22.7944 73.5807 13.5973C76.0364 4.38461 85.4993 -1.0742 94.6964 1.38148ZM91.0364 15.0832C92.6787 15.5212 93.6484 17.2104 93.2105 18.8371C92.7725 20.4795 91.0833 21.4492 89.4566 21.0113C87.8143 20.5733 86.8445 18.8841 87.2825 17.2574C87.7204 15.615 89.4097 14.6453 91.0364 15.0832ZM83.1532 22.1531C84.2011 23.9675 85.9529 25.3908 88.1271 25.9696C90.3169 26.5483 92.5379 26.1885 94.3523 25.1406C96.1667 24.0926 97.59 22.3408 98.1688 20.1666C98.2001 20.0415 98.2313 19.9007 98.2626 19.7756V21.6682C98.4503 21.2459 98.6224 20.7923 98.7475 20.3231C98.8101 20.1041 98.857 19.8851 98.9039 19.6661C98.9039 19.6818 98.8883 19.713 98.8883 19.7287L105.896 21.0895C106.302 19.0092 106.287 16.9445 105.896 14.9737L98.8883 16.3502L98.9039 16.4127C98.7788 15.7402 98.5754 15.0989 98.2939 14.4732V16.3502C98.1062 15.5055 97.7934 14.6922 97.3711 13.9414C96.3231 12.127 94.5713 10.7037 92.3971 10.125C90.2074 9.54622 87.9863 9.90597 86.1719 10.9539C84.3575 12.0019 82.9342 13.7537 82.3555 15.9279C81.7767 18.1176 82.1365 20.3387 83.1844 22.1531H83.1532ZM98.2783 19.6974C98.5129 18.5712 98.4972 17.4451 98.2783 16.3815V14.4732L104.801 11.5639C103.972 9.687 102.783 7.9821 101.297 6.55874L96.3387 11.7047L96.37 11.736C95.8851 11.2668 95.3533 10.8444 94.759 10.5003L94.7746 10.516L98.4503 4.40025C97.199 3.64947 95.8226 3.0551 94.3523 2.66407C93.8049 2.5233 93.2574 2.39817 92.71 2.31996L91.5994 9.37417H91.6307C90.6766 9.21776 89.7225 9.2334 88.7997 9.38981C88.8309 9.38981 88.8466 9.37417 88.8779 9.37417L87.7673 2.31996C85.7183 2.64843 83.7788 3.36792 82.027 4.41589L85.7183 10.5316L85.7652 10.5003C85.1709 10.8601 84.6234 11.2824 84.1229 11.7673L84.1542 11.736L79.1959 6.59002C77.7413 7.99774 76.5369 9.687 75.6923 11.5952L82.2303 14.4889L82.2616 14.4419C82.0739 14.8643 81.9019 15.3179 81.7767 15.7871C81.7142 16.0061 81.6672 16.225 81.6203 16.444C81.6203 16.4284 81.636 16.3971 81.636 16.3815L74.6287 15.0207C74.222 17.101 74.2376 19.1656 74.6287 21.1364L81.636 19.76L81.6203 19.6974C81.7454 20.37 81.9488 21.0113 82.2303 21.6369L75.7079 24.5462C76.5369 26.4231 77.7256 28.128 79.2116 29.5514L84.1698 24.4054C84.1386 24.3741 84.1073 24.3429 84.076 24.3116C84.5922 24.8121 85.1552 25.2657 85.7965 25.6411C85.7809 25.6254 85.7652 25.6254 85.734 25.6098L82.0583 31.7255C83.3096 32.4763 84.686 33.0707 86.1563 33.4617C86.7037 33.6025 87.2512 33.7276 87.7986 33.8058L88.9091 26.7516H88.8779C89.832 26.908 90.7861 26.8924 91.7089 26.736C91.6776 26.736 91.662 26.7516 91.6307 26.7516L92.7413 33.8058C94.7903 33.4774 96.7298 32.7579 98.4816 31.7099L94.7903 25.5942L94.7433 25.6254C95.3377 25.2657 95.8851 24.8434 96.3857 24.3585L96.3544 24.3898L101.313 29.5358C102.767 28.128 103.972 26.4388 104.816 24.5306L98.2783 21.6369L98.247 21.6838L98.2783 21.6369V19.7287V19.6974ZM91.8184 12.174C95.0718 13.0499 96.9957 16.3815 96.1354 19.6348C95.2595 22.8882 91.9279 24.8121 88.6745 23.9518C85.4211 23.0759 83.4973 19.7443 84.3575 16.4909C85.2334 13.2376 88.565 11.3137 91.8184 12.174Z" fill="#007aff"/>
<path fill-rule="evenodd" clip-rule="evenodd" d="M58.0084 17.6805C55.1147 17.6805 52.7685 20.0267 52.7685 22.9359C52.7685 24.7503 53.6914 26.4239 55.2242 27.378C56.2722 28.035 57.195 28.207 58.415 28.1601H63.7018V31.7732H57.9927C55.3337 31.7732 52.8468 30.6001 51.1575 28.5355C48.4828 25.2821 48.4828 20.5585 51.1575 17.3051C52.8624 15.2248 55.4119 14.036 58.1179 14.0673H58.1335H63.7018V17.6805H58.3994L57.9927 17.6648L58.0084 17.6805ZM24.4422 12.0965C25.4432 11.7524 26.4599 11.4396 27.4766 11.1424C28.6028 10.8139 29.729 10.5168 30.8708 10.2509C31.5746 10.0788 32.2785 9.92239 32.9823 9.78162C34.0772 9.56264 35.1721 9.35931 36.267 9.17161C39.2388 8.68673 42.2576 8.38955 45.2607 8.28006C46.2774 8.23314 47.2785 8.21749 48.2951 8.21749H48.5454C55.8812 8.23314 63.17 9.32802 70.1929 11.4552L70.3337 11.5022L67.659 14.5522L67.5965 14.5366C66.8457 14.3332 66.0949 14.1299 65.3441 13.9422C59.854 12.597 54.1919 11.9088 48.5454 11.8932H48.2951C47.2941 11.8932 46.2931 11.9088 45.292 11.9558C42.3045 12.0809 39.3171 12.3937 36.3609 12.8942C35.3285 13.0663 34.3118 13.2696 33.2952 13.4886L33.1231 13.5199C32.4975 13.6607 31.8718 13.8014 31.2462 13.9578C30.7926 14.0673 30.3233 14.1925 29.8697 14.3019C28.5559 14.6461 27.2576 15.0371 25.9751 15.4594L33.4359 31.8515H29.3066L22.4245 16.7263C22.0335 16.8828 21.6424 17.0392 21.2357 17.1956C18.608 18.2748 16.0272 19.5105 13.5559 20.9026L8.56632 31.8358H4.43703L7.78426 24.4688C6.73629 25.1726 5.71961 25.9234 4.73421 26.7055C4.32754 27.0183 3.93651 27.3311 3.54547 27.6439L3.43598 27.7378L0.198242 25.6419L0.29209 25.5637C0.557991 25.3447 0.823893 25.1257 1.08979 24.9067C1.51211 24.5626 1.93442 24.2342 2.35674 23.9057C3.01367 23.3895 3.68624 22.889 4.37446 22.4041C6.37654 20.9495 8.45683 19.6043 10.584 18.3687L17.0126 4.26025H20.8604L24.4266 12.0965H24.4422ZM16.0272 15.4907C17.6226 14.7243 19.2493 14.0204 20.9073 13.3791L18.9521 9.09341L16.0272 15.5063V15.4907ZM45.6205 26.8775L49.8593 31.7732H45.2451L41.804 27.8004H37.2524V31.7732H33.6393V14.083H34.437H42.1638C43.4464 14.083 44.682 14.4271 45.7613 15.0997C46.6684 15.6627 47.4349 16.4292 47.998 17.3364C48.6705 18.4156 49.0146 19.6669 49.0146 20.9338C49.0146 22.2164 48.6705 23.4521 47.998 24.5313C47.4349 25.4385 46.6684 26.205 45.7613 26.768C45.7143 26.7993 45.6518 26.8306 45.6048 26.8619L45.6205 26.8775ZM37.2524 17.6961V24.2029H42.1638C42.4453 24.2029 42.7425 24.1716 43.024 24.0934C44.4317 23.7024 45.4171 22.4198 45.4171 20.9651C45.4171 19.1664 43.9625 17.7117 42.1638 17.7117H37.2524V17.6961Z" fill="white" fill-opacity="0.5"/>
</svg>
