<svg width="20" height="20" viewBox="0 0 20 20" fill="none" xmlns="http://www.w3.org/2000/svg">
<path d="M10 0.937012C4.83063 0.937012 0.625 5.14264 0.625 10.312C0.625 15.4814 4.83063 19.687 10 19.687C15.1694 19.687 19.375 15.4814 19.375 10.312C19.375 5.14264 15.1694 0.937012 10 0.937012ZM10 4.78076C10.241 4.78076 10.4767 4.85224 10.6771 4.98616C10.8775 5.12008 11.0337 5.31042 11.126 5.53312C11.2182 5.75581 11.2424 6.00086 11.1953 6.23728C11.1483 6.47369 11.0322 6.69085 10.8618 6.8613C10.6913 7.03174 10.4742 7.14782 10.2378 7.19484C10.0014 7.24187 9.7563 7.21773 9.5336 7.12549C9.31091 7.03325 9.12056 6.87704 8.98665 6.67661C8.85273 6.47619 8.78125 6.24056 8.78125 5.99951C8.78125 5.67628 8.90965 5.36629 9.13821 5.13772C9.36677 4.90917 9.67677 4.78076 10 4.78076ZM12.25 15.3745H8.125C7.92609 15.3745 7.73532 15.2955 7.59467 15.1548C7.45402 15.0142 7.375 14.8234 7.375 14.6245C7.375 14.4256 7.45402 14.2348 7.59467 14.0942C7.73532 13.9535 7.92609 13.8745 8.125 13.8745H9.4375V9.74951H8.6875C8.48859 9.74951 8.29782 9.67049 8.15717 9.52984C8.01652 9.38919 7.9375 9.19842 7.9375 8.99951C7.9375 8.8006 8.01652 8.60983 8.15717 8.46918C8.29782 8.32853 8.48859 8.24951 8.6875 8.24951H10.1875C10.3864 8.24951 10.5772 8.32853 10.7178 8.46918C10.8585 8.60983 10.9375 8.8006 10.9375 8.99951V13.8745H12.25C12.4489 13.8745 12.6397 13.9535 12.7803 14.0942C12.921 14.2348 13 14.4256 13 14.6245C13 14.8234 12.921 15.0142 12.7803 15.1548C12.6397 15.2955 12.4489 15.3745 12.25 15.3745Z" fill="#F12D28"/>
</svg>
