<svg width="36" height="36" viewBox="0 0 36 36" fill="none" xmlns="http://www.w3.org/2000/svg">
<path d="M18 36C27.9411 36 36 27.9411 36 18C36 8.05888 27.9411 0 18 0C8.05888 0 0 8.05888 0 18C0 27.9411 8.05888 36 18 36Z" fill="url(#paint0_linear_1540_5664)"/>
<path d="M11.9354 12.7085C11.9417 12.7191 11.9477 12.7295 11.954 12.7401C12.0067 12.8312 12.0597 12.9218 12.1117 13.0132C12.3941 13.5099 12.7558 13.9583 13.0282 14.4587C13.3612 15.0701 13.7876 15.6158 14.175 16.1885C14.495 16.6616 15.2357 16.5482 15.5114 16.2809C15.7355 16.0635 15.7545 15.8855 15.5474 15.6475C14.885 14.8864 14.2663 14.0893 13.6196 13.3152C13.1628 12.7685 12.7325 12.1994 12.2424 11.6804L12.2434 11.6697C12.2441 11.6257 12.2034 11.619 12.1787 11.5984C12.0424 11.3477 11.8314 11.1543 11.6627 10.9286C10.9233 9.93884 10.1098 9.00973 9.31042 8.0693C9.0984 7.82027 8.87504 7.58091 8.66602 7.32788C8.94438 7.42222 9.16207 7.60458 9.32976 7.82827C9.67813 8.29366 10.0892 8.70203 10.4742 9.13408C10.5439 9.24043 10.6366 9.3251 10.7306 9.40878C10.7619 9.46012 10.7879 9.51612 10.8419 9.54979C10.8409 9.55946 10.8453 9.5648 10.8549 9.56513C10.9829 9.69348 11.111 9.82149 11.2386 9.94984C11.239 9.96084 11.245 9.96651 11.256 9.96617C11.4053 10.1022 11.48 10.2945 11.603 10.4452C11.8087 10.6976 12.0534 10.9179 12.2814 11.152L12.2868 11.1573C12.2961 11.1666 12.3058 11.1763 12.3151 11.1856L12.3171 11.1883C12.5011 11.4313 12.7268 11.636 12.9335 11.8584C14.0026 13.0105 15.0764 14.1586 16.1062 15.3468C16.5299 15.8358 16.4899 16.3215 16.0008 16.7789C15.6825 17.0766 15.2914 17.1996 14.8737 17.2643C14.7754 17.2793 14.677 17.2963 14.5807 17.321C14.169 17.4263 14.0126 17.5844 13.9766 18.0061C13.9043 18.8515 13.6789 19.6499 13.3042 20.4093C13.2529 20.5133 13.2105 20.6227 13.1739 20.733C12.9438 21.4284 13.0785 21.8978 13.6389 22.3809C13.9406 22.6409 14.287 22.8443 14.5723 23.125C14.9234 23.4703 15.0144 23.9467 14.814 24.3958C14.6543 24.7535 14.354 24.9812 14.0459 25.1902C13.4682 25.5826 12.8015 25.7516 12.1321 25.9069C12.0241 25.9319 11.9514 25.8869 11.901 25.7916C11.5703 25.1649 11.1686 24.5718 10.9379 23.8974C10.8109 23.526 10.7789 23.1323 10.8153 22.7346C10.8676 22.1609 11.13 21.6898 11.4923 21.2614C11.7434 20.9651 11.9861 20.6624 12.2164 20.349C12.6771 19.7226 12.9448 19.0248 13.0405 18.2538C13.0932 17.8294 13.1865 17.4117 13.4145 17.039C13.4635 16.959 13.5179 16.8809 13.5782 16.8089C13.8386 16.4972 13.8289 16.4839 13.6479 16.1072C13.2725 15.3261 12.8108 14.5934 12.3811 13.8439C12.1024 13.3586 11.8494 12.8565 11.5427 12.3868C11.5137 12.3424 11.481 12.3001 11.4763 12.2328C11.626 12.2364 11.7114 12.3218 11.7824 12.4334C11.838 12.5231 11.8584 12.6318 11.9354 12.7085ZM11.8554 22.6736C11.6297 22.6756 11.582 22.7423 11.6747 22.9443C11.7167 23.036 11.7194 23.12 11.6917 23.2156C11.627 23.4407 11.7434 23.5664 11.967 23.522C12.1664 23.4823 12.2898 23.293 12.2624 23.0683C12.2317 22.8146 12.0844 22.6716 11.8554 22.6736Z" fill="#FBF9FB"/>
<path d="M27.3189 20.563C27.3239 20.6147 27.3289 20.6667 27.3343 20.7187C27.3146 20.9461 27.2953 21.1734 27.2756 21.4011C27.2012 21.7018 27.1169 21.9992 26.9739 22.2759C26.9496 22.3229 26.9432 22.4026 26.8859 22.4029C26.7999 22.4039 26.8482 22.3142 26.8365 22.2719C26.6112 21.4615 26.0758 20.9264 25.3394 20.569C25.0563 20.4317 24.773 20.2933 24.4726 20.1963C23.8759 19.9333 23.2775 19.6736 22.6827 19.4056C22.2877 19.2276 21.913 19.0119 21.5693 18.7468C20.9942 18.3035 20.5995 17.7577 20.5898 16.997C20.5915 16.8883 20.5928 16.7796 20.5945 16.6709C20.6012 16.6276 20.6082 16.5839 20.6155 16.5376C20.6328 16.5396 20.6525 16.5359 20.6639 16.5439C21.3069 16.99 22.043 17.1593 22.8001 17.2713C23.3488 17.3527 23.8985 17.4277 24.4379 17.5617C25.1524 17.7644 25.8354 18.0271 26.3818 18.5588C26.5612 18.7335 26.7122 18.9302 26.8549 19.1342C26.9465 19.3142 27.0379 19.4943 27.1296 19.6743L27.1306 19.6756C27.1392 19.746 27.1619 19.8113 27.1969 19.873L27.1976 19.875C27.2449 20.1027 27.2993 20.3297 27.3189 20.563Z" fill="#FBF9FB"/>
<path d="M15.8809 11.8449C16.1436 11.7498 16.3886 11.7345 16.6503 11.8305C16.9993 11.9589 17.362 12.0445 17.6904 12.2319C18.0994 12.4656 18.4531 12.7636 18.7535 13.121C19.0762 13.505 19.4886 13.6291 19.963 13.5587C20.9058 13.4184 21.8169 13.5277 22.706 13.8601C22.948 13.9508 23.1887 14.0438 23.4134 14.1731C24.0434 14.5362 24.2348 14.9899 24.0524 15.6983C24.0084 15.87 23.9628 16.0423 23.8994 16.207C23.8434 16.3524 23.8774 16.447 24.0018 16.5317C24.1288 16.6181 24.2501 16.6231 24.3711 16.5327C24.5798 16.377 24.6938 16.157 24.7752 15.917C24.8319 15.7493 24.8859 15.5806 24.9505 15.3846C25.5423 16.025 25.9416 16.7377 26.0867 17.5892C25.942 17.3878 25.7606 17.2285 25.5553 17.0968C25.2426 16.8961 24.8959 16.8061 24.5292 16.7601C24.2461 16.7244 23.9581 16.7347 23.6811 16.6914C23.0643 16.5954 22.4343 16.6201 21.8252 16.4437C21.0038 16.206 20.3274 15.7686 19.7966 15.1019C19.4749 14.6978 19.1652 14.2841 18.8339 13.8884C18.5375 13.5347 18.2505 13.1717 17.9118 12.855C17.3734 12.3516 16.7626 11.9925 16.0169 11.9009C15.9742 11.8959 15.9265 11.9032 15.8809 11.8449Z" fill="#FBF9FB"/>
<path d="M23.6687 20.4706C24.0811 20.7086 24.4975 20.94 24.9049 21.1867C25.4306 21.5054 25.8947 21.8964 26.2294 22.4205C26.4744 22.8038 26.6074 23.2295 26.6341 23.6816C26.6804 24.47 26.5254 25.2151 26.091 25.8852C25.7937 26.3439 25.3889 26.6903 24.9162 26.96C24.8412 27.0026 24.7655 27.0443 24.6895 27.0853C24.6822 27.0893 24.6692 27.0826 24.6462 27.0786C24.8002 26.8093 24.8896 26.5206 24.9456 26.2212C25.0366 25.7365 24.9506 25.2734 24.7549 24.8297C24.4738 24.1923 24.0478 23.6423 23.6757 23.0592C23.371 22.5818 23.0447 22.1101 22.8813 21.5554C22.872 21.5244 22.8583 21.4944 22.8463 21.464C22.7963 21.17 22.7483 20.876 22.7837 20.5763C22.7943 20.4856 22.7967 20.3926 22.82 20.3052C22.8577 20.1655 22.939 20.0825 23.098 20.1485C23.2774 20.2752 23.4711 20.3776 23.6694 20.4702L23.6687 20.4706Z" fill="#FBF9FB"/>
<path d="M20.1351 24.8032C20.6612 25.3856 20.8022 26.1113 20.9042 26.8534C20.9489 27.1774 21.0205 27.4948 21.1719 27.7912C21.4212 28.2786 21.977 28.4522 22.4697 28.3216C22.604 28.2859 22.7467 28.2819 22.9231 28.2586C22.553 28.5923 22.1557 28.7229 21.7046 28.6543C21.0922 28.5606 20.7048 28.1629 20.4295 27.6442C20.2508 27.3074 20.1078 26.9517 19.9377 26.61C19.8544 26.4427 19.7991 26.2493 19.6107 26.1553C19.6077 26.1286 19.6137 26.096 19.6004 26.0763C19.2873 25.6176 18.6699 25.2799 18.0955 25.3926C17.5878 25.4919 17.2784 25.8606 17.3248 26.3507C17.3658 26.7854 17.7845 27.1341 18.2579 27.1278C18.5883 27.1234 18.811 26.9261 18.8706 26.5854C18.938 26.201 18.853 26.0466 18.4969 25.9066C18.3316 25.8416 18.1795 25.8406 18.0289 25.9593C17.9192 26.0456 17.8438 26.1487 17.7945 26.3067C17.7375 25.9913 17.8175 25.8043 18.0549 25.7473C18.5046 25.6389 18.8176 25.6719 19.0623 26.0883C19.0926 26.14 19.129 26.1883 19.1623 26.238C19.183 26.2717 19.204 26.3053 19.2247 26.339C19.2273 26.3553 19.2297 26.3717 19.2323 26.3883C19.168 26.469 19.2187 26.564 19.1997 26.6514C19.1707 26.7851 19.116 26.9081 19.064 27.0328C18.9683 27.1694 18.8583 27.2931 18.7263 27.3961C18.4882 27.5698 18.2132 27.5258 17.9462 27.5281C17.5285 27.4515 17.2188 27.2154 16.9407 26.9021C16.4737 26.3753 15.9203 25.967 15.2219 25.7896C15.0499 25.7459 14.8752 25.7186 14.6985 25.7026C14.5695 25.6909 14.5281 25.6089 14.6085 25.5059C14.6512 25.4506 14.7165 25.4129 14.7725 25.3679C15.4109 24.8558 16.098 24.4345 16.8984 24.2234C16.9134 24.2194 16.9257 24.2058 16.9394 24.1968C17.1384 24.1614 17.3378 24.1261 17.5368 24.0908C17.6262 24.0808 17.7158 24.0711 17.8052 24.0611C17.9719 24.0591 18.1385 24.0574 18.3052 24.0554C18.6959 24.0808 19.073 24.1668 19.4387 24.3058C19.6674 24.4335 19.8867 24.5741 20.0808 24.7515L20.0858 24.7568C20.1028 24.7728 20.1198 24.7888 20.1368 24.8048L20.1351 24.8032Z" fill="#FBF9FB"/>
<path d="M17.667 15.8653C17.2857 15.838 16.9856 15.6556 16.7149 15.4162C16.0379 14.8188 15.6962 14.0494 15.5705 13.1703C15.5398 12.9553 15.5265 12.7396 15.5585 12.5239C15.5868 12.3326 15.6562 12.2842 15.8408 12.3269C16.4292 12.4626 16.8466 12.7939 17.0446 13.3793C17.2 13.8384 17.2737 14.3194 17.4307 14.7782C17.5274 15.0605 17.6484 15.3282 17.8277 15.5679C17.8744 15.6303 17.9344 15.6973 17.8937 15.7779C17.8467 15.871 17.7471 15.8626 17.667 15.8653Z" fill="#FBF9FB"/>
<path d="M17.7169 23.2811C17.6695 23.2014 17.7402 23.2004 17.7836 23.1724C18.1119 22.9594 18.4806 22.8557 18.8567 22.7714C19.3881 22.652 19.9335 22.603 20.4602 22.4617C21.2143 22.2597 21.7833 21.8463 22.0087 21.0605C22.101 20.7388 22.0857 20.4138 22.0007 20.0914C21.9844 20.0297 21.9333 19.9471 22.0014 19.9121C22.068 19.8774 22.115 19.9674 22.153 20.0144C22.4124 20.3334 22.4854 20.7068 22.4547 21.1069C22.4424 21.2679 22.3997 21.4229 22.3517 21.5762C22.2417 21.8513 22.0814 22.0946 21.8907 22.3197L21.889 22.3217C21.643 22.555 21.357 22.726 21.0486 22.8631C21.0336 22.8667 21.0186 22.8701 21.0036 22.8737C20.8259 22.9184 20.6485 22.9634 20.4709 23.0081C19.7088 23.1271 18.9347 23.1044 18.1709 23.2024C18.0182 23.2221 17.8672 23.2554 17.7152 23.2828L17.7169 23.2811Z" fill="#FBF9FB"/>
<path d="M16.7348 18.9282C16.3187 18.9246 16.0597 18.5595 16.1174 18.1718C16.1684 17.8304 16.5308 17.4521 16.8978 17.3627C17.2892 17.2677 17.5389 17.4891 17.7622 17.7608C17.8072 17.8158 17.8466 17.8771 17.8789 17.9405C18.0313 18.2405 17.9993 18.4512 17.7132 18.6395C17.3939 18.8496 17.0225 18.8879 16.7348 18.9282ZM17.0595 17.5638C16.9668 17.5544 16.8735 17.5864 16.7788 17.6198C16.6731 17.6571 16.6421 17.7408 16.6274 17.8371C16.6131 17.9311 16.6598 18.0005 16.7351 18.0445C16.9028 18.1425 17.0858 18.1852 17.2758 18.1325C17.4165 18.0935 17.4902 17.9815 17.5109 17.8398C17.5295 17.7108 17.4145 17.6798 17.3385 17.6251C17.2595 17.5681 17.1648 17.5574 17.0595 17.5638Z" fill="#FBF9FB"/>
<path d="M24.376 15.7646C24.376 15.5846 24.376 15.4046 24.376 15.2242C24.376 15.0298 24.3733 14.8365 24.34 14.6435C24.2657 14.2121 24.0363 13.9017 23.6413 13.7117C23.4139 13.602 23.1672 13.527 22.9769 13.3487C22.9579 13.331 22.9332 13.3193 22.9229 13.2887C23.1965 13.293 23.4519 13.3507 23.6733 13.4933C23.9096 13.6454 24.2197 13.554 24.1833 13.1833C24.1723 13.0716 24.2207 12.9733 24.277 12.8786C24.294 12.8503 24.312 12.8383 24.3413 12.8413C24.372 12.8443 24.371 12.8703 24.3697 12.8906C24.317 13.6484 24.8011 14.1274 25.2654 14.6168C25.2688 14.6205 25.2688 14.6271 25.2704 14.6325C25.1398 14.6648 25.1181 14.6598 24.9461 14.5561C24.7404 14.4324 24.601 14.4998 24.594 14.7435C24.5884 14.9482 24.595 15.1532 24.5734 15.3579C24.5574 15.5146 24.5084 15.6529 24.376 15.7646Z" fill="#FBF9FB"/>
<path d="M17.716 23.2825C17.7061 23.2791 17.6965 23.2756 17.6865 23.2722C17.6968 23.2753 17.7071 23.2784 17.7174 23.2818C17.7177 23.2815 17.716 23.2825 17.716 23.2825Z" fill="#FBF9FB"/>
<defs>
<linearGradient id="paint0_linear_1540_5664" x1="5.28149" y1="8.76456" x2="29.5939" y2="26.4188" gradientUnits="userSpaceOnUse">
<stop offset="0.014" stop-color="#86035E"/>
<stop offset="1" stop-color="#271263"/>
</linearGradient>
</defs>
</svg>
